<?xml version="1.0" encoding="utf-8"?>
<!-- Generator: Adobe Illustrator 16.0.0, SVG Export Plug-In . SVG Version: 6.00 Build 0)  -->
<!DOCTYPE svg PUBLIC "-//W3C//DTD SVG 1.1//EN" "http://www.w3.org/Graphics/SVG/1.1/DTD/svg11.dtd">
<svg version="1.1" id="Layer_1" xmlns:figma="http://www.figma.com/figma/ns"
	 xmlns="http://www.w3.org/2000/svg" xmlns:xlink="http://www.w3.org/1999/xlink" x="0px" y="0px" width="35px" height="30px"
	 viewBox="0 0 35 30" enable-background="new 0 0 35 30" xml:space="preserve">
<title>icon_cart_02</title>
<desc>Created using Figma</desc>
<g id="Canvas" transform="translate(-2038 1328)" figma:type="canvas">
	<g id="icon_cart_02" figma:type="frame">
		<g id="Group" figma:type="frame">
			<g id="Vector" figma:type="vector">
				<g transform="translate(2045.84 -1313.83)">
					<path id="path0_fill" fill="#FFFFFF" d="M2068.242-1304.937h-19.192c-1.463,0-3.019-1.034-3.019-2.948
						c0-1.86,1.468-2.889,2.896-2.945l19.867-2.984c0.777-0.116,1.505,0.403,1.619,1.16c0.12,0.757-0.41,1.467-1.188,1.584
						l-19.956,2.998c-0.091,0.012-0.117,0.018-0.199,0.015c-0.062,0.007-0.141,0.028-0.186,0.049
						c-0.003,0.019-0.009,0.06-0.009,0.124c0,0.063,0.006,0.104,0.009,0.119c0.056,0.033,0.167,0.049,0.167,0.049h19.19
						c0.784,0,1.425,0.625,1.425,1.391S2069.024-1304.937,2068.242-1304.937z"/>
				</g>
			</g>
		</g>
		<g id="Group_1_" figma:type="frame">
			<g id="Vector_1_" figma:type="vector">
				<g transform="translate(2044.28 -1323.32)">
					<path id="path1_fill" fill="#FFFFFF" d="M2049.053-1308.057c-0.644,0-1.216-0.425-1.378-1.049l-3.198-12.489
						c-0.109-0.416-0.013-0.853,0.259-1.19c0.27-0.337,0.682-0.535,1.123-0.535h25.585c0.437,0,0.851,0.198,1.12,0.533
						c0.269,0.338,0.366,0.777,0.259,1.19l-2.431,9.489c-0.138,0.543-0.599,0.951-1.161,1.037l-19.958,2.999
						C2049.198-1308.064,2049.123-1308.057,2049.053-1308.057z M2047.677-1320.543l2.441,9.534l17.739-2.664l1.762-6.87H2047.677z"
						/>
				</g>
			</g>
		</g>
		<g id="Group_2_" figma:type="frame">
			<g id="Vector_2_" figma:type="vector">
				<g transform="translate(2046.1 -1303.38)">
					<path id="path2_fill" fill="#FFFFFF" d="M2049.051-1298.005c1.521,0,2.753-1.203,2.753-2.688s-1.232-2.688-2.753-2.688
						c-1.521,0-2.753,1.203-2.753,2.688S2047.53-1298.005,2049.051-1298.005z"/>
				</g>
			</g>
		</g>
		<g id="Group_3_" figma:type="frame">
			<g id="Vector_3_" figma:type="vector">
				<g transform="translate(2063.27 -1303.38)">
					<path id="path3_fill" fill="#FFFFFF" d="M2066.642-1298.005c1.521,0,2.753-1.203,2.753-2.688s-1.232-2.688-2.753-2.688
						c-1.521,0-2.754,1.203-2.754,2.688S2065.12-1298.005,2066.642-1298.005z"/>
				</g>
			</g>
		</g>
		<g id="Group_4_" figma:type="frame">
			<g id="Vector_4_" figma:type="vector">
				<g transform="translate(2038.04 -1328)">
					<path id="path4_fill" fill="#FFFFFF" d="M2045.859-1320.542c-0.593,0-1.148-0.369-1.348-0.949l-1.275-3.735h-3.772
						c-0.785,0-1.424-0.621-1.424-1.386s0.639-1.388,1.424-1.388h4.796c0.614,0,1.154,0.383,1.348,0.949l1.6,4.682
						c0.248,0.728-0.156,1.512-0.899,1.755C2046.161-1320.565,2046.008-1320.542,2045.859-1320.542z"/>
				</g>
			</g>
		</g>
		<g id="Group_5_" figma:type="frame">
			<g id="Vector_5_" figma:type="vector">
				<g transform="translate(2046.29 -1317.67)">
					<path id="path5_fill" fill="#FFFFFF" d="M2070.127-1315.934h-22.744c-0.491,0-0.891-0.388-0.891-0.867s0.4-0.869,0.891-0.869
						h22.744c0.491,0,0.891,0.39,0.891,0.869S2070.618-1315.934,2070.127-1315.934z"/>
				</g>
			</g>
		</g>
		<g id="Group_6_" figma:type="frame">
			<g id="Vector_6_" figma:type="vector">
				<g transform="translate(2053.47 -1322.8)">
					<path id="path6_fill" fill="#FFFFFF" d="M2054.737-1309.043c-0.491,0-0.889-0.387-0.889-0.865v-12.022
						c0-0.481,0.398-0.87,0.889-0.87s0.891,0.389,0.891,0.87v12.022C2055.625-1309.43,2055.228-1309.043,2054.737-1309.043z"/>
				</g>
			</g>
		</g>
		<g id="Group_7_" figma:type="frame">
			<g id="Vector_7_" figma:type="vector">
				<g transform="translate(2061.1 -1322.8)">
					<path id="path7_fill" fill="#FFFFFF" d="M2062.555-1311.221c-0.49,0-0.89-0.391-0.89-0.869v-9.841
						c0-0.481,0.399-0.87,0.89-0.87c0.492,0,0.891,0.389,0.891,0.87v9.843C2063.445-1311.609,2063.047-1311.221,2062.555-1311.221z"
						/>
				</g>
			</g>
		</g>
	</g>
</g>
</svg>
