<?xml version="1.0" encoding="utf-8"?>
<!-- Generator: Adobe Illustrator 16.0.0, SVG Export Plug-In . SVG Version: 6.00 Build 0)  -->
<!DOCTYPE svg PUBLIC "-//W3C//DTD SVG 1.1//EN" "http://www.w3.org/Graphics/SVG/1.1/DTD/svg11.dtd">
<svg version="1.1" id="Layer_1" xmlns="http://www.w3.org/2000/svg" xmlns:xlink="http://www.w3.org/1999/xlink" x="0px" y="0px"
	 width="6256px" height="1072.369px" viewBox="0 0 6256 1072.369" enable-background="new 0 0 6256 1072.369" xml:space="preserve">
<g>
	<g>
		<path d="M1135.507,67.454c-86.665,4.809-122,25.677-130.024,97.917c-6.43,49.762-12.833,123.608-12.833,268.086v642.127h-67.43
			L251,260.086h-3.215v375.634c0,144.478,6.43,216.717,11.239,264.885c8.023,75.454,40.145,101.119,154.123,107.548v51.384H26.259
			v-51.384c89.88-6.429,128.431-30.5,134.833-102.738c6.43-52.978,14.453-125.217,14.453-269.694V295.395
			c0-110.762-3.214-131.631-32.094-168.548C111.331,86.715,76.021,73.87,5.376,67.454v-51.37h274.502l634.104,741.638h4.808V433.457
			c0-142.87-8.023-218.324-11.238-264.872C899.529,97.954,864.22,73.87,748.648,67.454v-51.37h386.859V67.454z"/>
		<path d="M2129.079,797.84c-9.645,65.836-41.739,213.529-56.192,261.697h-802.652v-51.384
			c139.669-11.237,154.123-22.476,154.123-157.336V226.372c0-141.264-14.453-149.288-133.239-158.917v-51.37h741.651
			c1.594,32.094,9.618,142.87,16.047,237.573l-54.598,8.037c-14.427-61.001-33.688-107.562-59.38-138.062
			c-25.691-32.107-69.023-43.346-168.548-43.346h-94.715c-56.192,0-61.001,3.215-61.001,54.584v351.564h123.596
			c141.264,0,157.311-9.631,178.193-122.001h52.977v317.848h-52.977c-20.882-113.977-38.523-122-176.599-122h-125.19v285.753
			c0,77.049,8.024,115.572,38.525,131.619c30.5,16.048,86.665,17.642,154.094,17.642c97.931,0,149.288-11.212,186.217-52.978
			c30.501-33.688,59.407-86.665,86.693-154.096L2129.079,797.84z"/>
		<path d="M3246.244,1073.99c-12.832,0-30.5-1.621-49.762-1.621c-173.384-8.023-235.979-49.763-305.003-152.501
			c-46.574-70.646-94.715-162.146-141.263-244.017c-27.313-46.547-54.598-67.416-118.813-67.416H2594.5v242.382
			c0,133.266,14.427,146.099,138.048,157.336v51.384H2271.83v-51.384c123.595-11.237,139.669-24.07,139.669-157.336V223.156
			c0-131.631-14.453-144.478-133.24-155.702v-51.37h430.219c133.239,0,213.501,14.439,276.097,57.786
			c64.215,43.345,107.548,113.978,107.548,213.501c0,139.669-89.88,219.932-202.264,266.479
			c25.692,49.762,88.286,155.716,136.454,229.563c56.192,86.692,89.906,134.833,125.216,171.763
			c36.931,40.118,67.431,59.406,104.359,70.618L3246.244,1073.99z M2649.071,549.042c72.24,0,125.216-11.239,163.74-43.346
			c56.191-46.561,80.262-110.763,80.262-194.24c0-173.37-104.333-235.978-205.478-235.978c-43.333,0-67.431,6.416-78.668,16.047
			c-11.212,9.631-14.427,27.298-14.427,64.215v393.302H2649.071z"/>
		<path d="M4210.937,797.84c-9.618,65.836-41.739,213.529-56.192,261.697h-802.651v-51.384
			c139.669-11.237,154.122-22.476,154.122-157.336V226.372c0-141.264-14.453-149.288-133.24-158.917v-51.37h741.652
			c1.594,32.094,9.617,142.87,16.047,237.573l-54.571,8.037c-14.453-61.001-33.716-107.562-59.405-138.062
			c-25.692-32.107-69.025-43.346-168.55-43.346h-94.716c-56.191,0-61,3.215-61,54.584v351.564h123.595
			c141.264,0,157.337-9.631,178.192-122.001h52.979v317.848h-52.979c-20.855-113.977-38.523-122-176.572-122h-125.215v285.753
			c0,77.049,8.023,115.572,38.523,131.619c30.5,16.048,86.691,17.642,154.096,17.642c97.931,0,149.313-11.212,186.217-52.978
			c30.5-33.688,59.406-86.665,86.691-154.096L4210.937,797.84z"/>
		<path d="M5451.697,67.454c-91.5,6.416-130.025,35.309-136.453,94.702c-8.025,48.168-12.834,110.776-12.834,235.979v158.931
			c0,178.179-27.285,314.633-118.785,410.97c-73.859,75.454-181.408,113.978-293.766,113.978
			c-101.145,0-199.074-22.477-272.908-80.289c-93.121-72.212-136.455-191.025-136.455-378.836V236.002
			c0-147.68-14.453-157.324-136.453-168.548v-51.37h457.504v51.37c-120.38,9.63-134.833,20.869-134.833,168.548v354.778
			c0,247.23,91.501,390.088,276.097,390.088c205.479,0,284.146-162.146,284.146-430.219V398.135
			c0-125.203-6.428-189.418-14.453-237.587c-8.022-57.786-44.953-85.071-155.715-93.094v-51.37h394.908V67.454z"/>
		<path d="M6167.523,277.718C6137.023,176.585,6082.454,61,5949.214,61c-102.739,0-165.36,73.847-165.36,163.74
			c0,99.525,65.809,152.501,202.264,221.526c152.501,75.453,280.932,160.539,280.932,327.479
			c0,178.193-150.908,317.863-378.861,317.863c-61.002,0-115.572-9.618-158.906-22.477c-43.359-14.454-72.238-25.692-91.5-35.337
			c-14.453-38.523-35.336-173.357-46.574-263.238l54.599-16.073c28.879,101.145,115.571,274.528,272.908,274.528
			c107.548,0,173.356-70.645,173.356-178.219c0-92.046-77.046-162.119-197.455-226.334
			c-142.856-72.239-274.502-157.324-274.502-321.064C5620.113,134.847,5753.354,0,5974.878,0
			c91.503,0,174.979,25.678,215.124,40.131c6.429,57.786,16.047,125.215,30.5,226.348L6167.523,277.718z"/>
	</g>
</g>
</svg>
